<?xml version="1.0" standalone="no"?><!-- Generator: Gravit.io --><svg xmlns="http://www.w3.org/2000/svg" xmlns:xlink="http://www.w3.org/1999/xlink" style="isolation:isolate" viewBox="0 0 100 125" width="100" height="125"><g id="null"><path d=" M 86 32 L 86 40 L 82 40 L 82 34 L 76 34 L 76 30 L 84 30 C 85.1 30 86 30.9 86 32 Z  M 14 32 L 14 40 L 18 40 L 18 34 L 24 34 L 24 30 L 16 30 C 14.9 30 14 30.9 14 32 Z  M 18 60 L 14 60 L 14 68 C 14 69.1 14.9 70 16 70 L 24 70 L 24 66 L 18 66 L 18 60 L 18 60 Z  M 82 66 L 76 66 L 76 70 L 84 70 C 85.1 70 86 69.1 86 68 L 86 60 L 82 60 L 82 66 L 82 66 Z  M 75 50 C 75 63.8 63.8 75 50 75 C 36.2 75 25 63.8 25 50 C 25 36.2 36.2 25 50 25 C 63.8 25 75 36.2 75 50 Z  M 71 50 C 71 38.4 61.6 29 50 29 C 38.4 29 29 38.4 29 50 C 29 61.6 38.4 71 50 71 C 61.6 71 71 61.6 71 50 Z " fill="rgb(0,0,0)"/></g></svg>